GIL08_xslow2_ik
nRows=3
nColumns=375

# SIMM Motion File Header:
name GIL08_xslow2_ik
datacolumns 375
datarows 3
otherdata 1
range 1.38333000 1.40000000
endheader
time	pelvis_tx	pelvis_ty	pelvis_tz	pelvis_tilt	pelvis_list	pelvis_rotation	hip_flexion_r	hip_adduction_r	hip_rotation_r	knee_angle_r	ankle_angle_r	hip_flexion_l	hip_adduction_l	hip_rotation_l	knee_angle_l	ankle_angle_l	lumbar_extension	lumbar_bending	lumbar_rotation	subtalar_angle_r	mtp_angle_r	subtalar_angle_l	mtp_angle_l	asis_r_px	asis_r_py	asis_r_pz	asis_l_px	asis_l_py	asis_l_pz	midasis_px	midasis_py	midasis_pz	psis_r_px	psis_r_py	psis_r_pz	psis_l_px	psis_l_py	psis_l_pz	hip_r_px	hip_r_py	hip_r_pz	hip_l_px	hip_l_py	hip_l_pz	midhip_px	midhip_py	midhip_pz	epicondLat_r_px	epicondLat_r_py	epicondLat_r_pz	epicondMed_r_px	epicondMed_r_py	epicondMed_r_pz	thighwand_r_px	thighwand_r_py	thighwand_r_pz	upperleg1_r_px	upperleg1_r_py	upperleg1_r_pz	upperleg2_r_px	upperleg2_r_py	upperleg2_r_pz	malleolusLat_r_px	malleolusLat_r_py	malleolusLat_r_pz	malleolusMedv_r_px	malleolusMedv_r_py	malleolusMedv_r_pz	shankwand_r_px	shankwand_r_py	shankwand_r_pz	lowerleg1_r_px	lowerleg1_r_py	lowerleg1_r_pz	knee_r_px	knee_r_py	knee_r_pz	ankle_r_px	ankle_r_py	ankle_r_pz	toe_r_px	toe_r_py	toe_r_pz	epicondLat_l_px	epicondLat_l_py	epicondLat_l_pz	epicondMed_l_px	epicondMed_l_py	epicondMed_l_pz	thighwand_l_px	thighwand_l_py	thighwand_l_pz	upperleg1_l_px	upperleg1_l_py	upperleg1_l_pz	upperleg2_l_px	upperleg2_l_py	upperleg2_l_pz	malleolusLat_l_px	malleolusLat_l_py	malleolusLat_l_pz	malleolusMedv_l_px	malleolusMedv_l_py	malleolusMedv_l_pz	shankwand_l_px	shankwand_l_py	shankwand_l_pz	lowerleg1_l_px	lowerleg1_l_py	lowerleg1_l_pz	knee_l_px	knee_l_py	knee_l_pz	ankle_l_px	ankle_l_py	ankle_l_pz	toe_l_px	toe_l_py	toe_l_pz	subclavicle_r_px	subclavicle_r_py	subclavicle_r_pz	subclavicle_l_px	subclavicle_l_py	subclavicle_l_pz	neck_px	neck_py	neck_pz	sternalnotch_px	sternalnotch_py	sternalnotch_pz	xyphoidprocess_px	xyphoidprocess_py	xyphoidprocess_pz	midhip_tx	midhip_ty	midhip_tz	hip_r_tx	hip_r_ty	hip_r_tz	hip_l_tx	hip_l_ty	hip_l_tz	knee_r_tx	knee_r_ty	knee_r_tz	knee_l_tx	knee_l_ty	knee_l_tz	ankle_r_tx	ankle_r_ty	ankle_r_tz	ankle_l_tx	ankle_l_ty	ankle_l_tz	midasis_tx	midasis_ty	midasis_tz	asis_r_tx	asis_r_ty	asis_r_tz	asis_l_tx	asis_l_ty	asis_l_tz	psis_r_tx	psis_r_ty	psis_r_tz	psis_l_tx	psis_l_ty	psis_l_tz	epicondLat_r_tx	epicondLat_r_ty	epicondLat_r_tz	epicondLat_l_tx	epicondLat_l_ty	epicondLat_l_tz	epicondMed_r_tx	epicondMed_r_ty	epicondMed_r_tz	epicondMed_l_tx	epicondMed_l_ty	epicondMed_l_tz	malleolusLat_r_tx	malleolusLat_r_ty	malleolusLat_r_tz	malleolusLat_l_tx	malleolusLat_l_ty	malleolusLat_l_tz	malleolusMedv_r_tx	malleolusMedv_r_ty	malleolusMedv_r_tz	malleolusMedv_l_tx	malleolusMedv_l_ty	malleolusMedv_l_tz	neck_tx	neck_ty	neck_tz	subclavicle_r_tx	subclavicle_r_ty	subclavicle_r_tz	subclavicle_l_tx	subclavicle_l_ty	subclavicle_l_tz	sternalnotch_tx	sternalnotch_ty	sternalnotch_tz	xyphoidprocess_tx	xyphoidprocess_ty	xyphoidprocess_tz	thighwand_r_tx	thighwand_r_ty	thighwand_r_tz	thighwand_l_tx	thighwand_l_ty	thighwand_l_tz	upperleg1_r_tx	upperleg1_r_ty	upperleg1_r_tz	upperleg1_l_tx	upperleg1_l_ty	upperleg1_l_tz	upperleg2_r_tx	upperleg2_r_ty	upperleg2_r_tz	upperleg2_l_tx	upperleg2_l_ty	upperleg2_l_tz	shankwand_r_tx	shankwand_r_ty	shankwand_r_tz	shankwand_l_tx	shankwand_l_ty	shankwand_l_tz	lowerleg1_r_tx	lowerleg1_r_ty	lowerleg1_r_tz	lowerleg1_l_tx	lowerleg1_l_ty	lowerleg1_l_tz	toe_r_tx	toe_r_ty	toe_r_tz	toe_l_tx	toe_l_ty	toe_l_tz	ground_force_vx	ground_force_vy	ground_force_vz	ground_force_px	ground_force_py	ground_force_pz	ground_force_vx	ground_force_vy	ground_force_vz	ground_force_px	ground_force_py	ground_force_pz	ground_torque_x	ground_torque_y	ground_torque_z	ground_torque_x	ground_torque_y	ground_torque_z	ground_marker_px	ground_marker_py	ground_marker_pz	ground_marker_px	ground_marker_py	ground_marker_pz	ground_marker_px	ground_marker_py	ground_marker_pz	ground_marker_px	ground_marker_py	ground_marker_pz	ground_marker_px	ground_marker_py	ground_marker_pz	ground_marker_px	ground_marker_py	ground_marker_pz	ground_marker_px	ground_marker_py	ground_marker_pz	ground_marker_px	ground_marker_py	ground_marker_pz	ground_marker_px	ground_marker_py	ground_marker_pz	ground_marker_px	ground_marker_py	ground_marker_pz	ground_marker_px	ground_marker_py	ground_marker_pz	ground_marker_px	ground_marker_py	ground_marker_pz	ground_marker_px	ground_marker_py	ground_marker_pz	ground_marker_px	ground_marker_py	ground_marker_pz	ground_marker_px	ground_marker_py	ground_marker_pz	ground_marker_px	ground_marker_py	ground_marker_pz	ground_marker_px	ground_marker_py	ground_marker_pz	ground_marker_px	ground_marker_py	ground_marker_pz	ground_marker_px	ground_marker_py	ground_marker_pz	ground_marker_px	ground_marker_py	ground_marker_pz	ground_marker_px	ground_marker_py	ground_marker_pz	ground_marker_px	ground_marker_py	ground_marker_pz	ground_marker_px	ground_marker_py	ground_marker_pz	ground_marker_px	ground_marker_py	ground_marker_pz	ground_marker_px	ground_marker_py	ground_marker_pz	ground_marker_px	ground_marker_py	ground_marker_pz	ground_marker_px	ground_marker_py	ground_marker_pz	ground_marker_px	ground_marker_py	ground_marker_pz	ground_marker_px	ground_marker_py	ground_marker_pz	ground_marker_px	ground_marker_py	ground_marker_pz	ground_marker_px	ground_marker_py	ground_marker_pz	ground_marker_px	ground_marker_py	ground_marker_pz	ground_marker_px	ground_marker_py	ground_marker_pz	ground_marker_px	ground_marker_py	ground_marker_pz	ground_marker_px	ground_marker_py	ground_marker_pz	ground_marker_px	ground_marker_py	ground_marker_pz	ground_marker_px	ground_marker_py	ground_marker_pz
      1.38333000	     -0.22631037	      0.96555876	      0.26213659	      5.27971875	      1.20793433	     12.73902248	     -4.69273403	      1.28469075	      3.62144060	    -11.06882921	      9.19209267	     11.91253027	      0.21435889	      7.17764176	    -31.88003080	     13.87327498	    -12.44440763	      4.66254860	     -2.08992250	      0.00000000	      0.00000000	      0.00000000	      0.00000000	     -0.15900888	      0.98960214	      0.34877174	     -0.21338065	      0.99275615	      0.14289953	     -0.21500197	      0.96665815	      0.25956858	     -0.37138984	      0.98192387	      0.33979162	     -0.39622940	      0.98374674	      0.25521090	     -0.26297206	      0.90524288	      0.34169435	     -0.29374442	      0.90526841	      0.20619694	     -0.27835824	      0.90525565	      0.27394564	     -0.19760340	      0.46901142	      0.36436357	     -0.25546458	      0.49085825	      0.26085904	     -0.14213172	      0.58657213	      0.42879705	     -0.15443370	      0.64782753	      0.35862327	     -0.16127118	      0.56670478	      0.33556715	     -0.33845706	      0.06372035	      0.38820262	     -0.35869254	      0.06474149	      0.32272463	     -0.28317416	      0.12859449	      0.44122688	     -0.30189629	      0.19020621	      0.38391747	     -0.26284924	      0.49132950	      0.33226556	     -0.33661744	      0.08128943	      0.34471884	     -0.22812488	      0.03917789	      0.31571704	     -0.14297448	      0.50386247	      0.10382183	     -0.14936937	      0.50157447	      0.21182810	     -0.04330217	      0.67755168	      0.15593652	     -0.13623068	      0.71248365	      0.12908844	     -0.12032635	      0.62729825	      0.12435814	     -0.29563330	      0.08768647	      0.13816893	     -0.27579895	      0.09056103	      0.20507601	     -0.15418329	      0.16107335	      0.16467456	     -0.20596918	      0.22807937	      0.16255553	     -0.17134538	      0.50776266	      0.18006173	     -0.27764941	      0.10474726	      0.17728088	     -0.15877966	      0.05952841	      0.14253160	     -0.22202175	      1.36209509	      0.38144517	     -0.24221384	      1.37742028	      0.22787509	     -0.32783897	      1.44672147	      0.31422569	     -0.24475758	      1.37194908	      0.30252643	     -0.21893308	      1.17090352	      0.27232209	     -0.28382500	      0.90024800	      0.28390800	     -0.27033500	      0.88865000	      0.33588700	     -0.29416800	      0.89160700	      0.23205900	     -0.26527500	      0.48218700	      0.32391700	     -0.17145400	      0.49233400	      0.19199100	     -0.34321200	      0.07047000	      0.31668700	     -0.27819000	      0.08512300	      0.18212200	     -0.20711400	      0.98872500	      0.26953400	     -0.18383400	      0.98583700	      0.37095500	     -0.23039400	      0.99161400	      0.16811300	     -0.39671500	      1.01061400	      0.34686100	     -0.41580200	      1.01132900	      0.26319200	     -0.24819800	      0.48072200	      0.38089500	     -0.17769900	      0.49633900	      0.13295500	     -0.28275700	      0.49779900	      0.26708100	     -0.17463100	      0.48534000	      0.24401000	     -0.34306000	      0.06977400	      0.35468000	     -0.28696000	      0.08835200	      0.14374400	     -0.34336000	      0.07529900	      0.28435900	     -0.27318900	      0.09882800	      0.21056600	     -0.32049000	      1.46914300	      0.31664400	     -0.21666000	      1.38861800	      0.37851600	     -0.24369700	      1.39803600	      0.22561400	     -0.24288100	      1.39561900	      0.30042100	     -0.22108600	      1.19312800	      0.27723200	     -0.20552200	      0.58160300	      0.46055400	     -0.06616000	      0.65031900	      0.16685200	     -0.19747700	      0.64551800	      0.39081000	     -0.15759600	      0.68721000	      0.14068500	     -0.20379700	      0.56555800	      0.36396100	     -0.14477100	      0.60034200	      0.14369200	     -0.30886300	      0.13911300	      0.42187100	     -0.15793900	      0.17659900	      0.17379500	     -0.32063900	      0.20022100	      0.36334200	     -0.21022400	      0.24049600	      0.17387500	     -0.21982400	      0.04206700	      0.30330700	     -0.16092100	      0.06097300	      0.17720000	     -4.31415919	    580.90120355	    -10.32304894	     -0.27531226	      0.00000000	      0.31468860	      0.00000000	      0.00000000	      0.00000000	     -0.59354718	      0.00000000	      0.22811145	      0.00000000	      0.13547083	      0.00000000	      0.00000000	      0.00000000	      0.00000000	     -0.28382468	      0.90024757	      0.28390771	     -0.27033541	      0.88864970	      0.33588734	     -0.29416826	      0.89160687	      0.23205860	     -0.26527497	      0.48218742	      0.32391706	     -0.17145418	      0.49233431	      0.19199090	     -0.34321186	      0.07046959	      0.31668693	     -0.27818993	      0.08512289	      0.18212247	     -0.20711419	      0.98872507	      0.26953396	     -0.18383391	      0.98583657	      0.37095541	     -0.23039445	      0.99161363	      0.16811253	     -0.39671499	      1.01061356	      0.34686053	     -0.41580173	      1.01132894	      0.26319182	     -0.24819824	      0.48072201	      0.38089502	     -0.17769913	      0.49633929	      0.13295521	     -0.28275657	      0.49779919	      0.26708150	     -0.17463125	      0.48534045	      0.24400996	     -0.34306026	      0.06977369	      0.35468024	     -0.28696036	      0.08835182	      0.14374404	     -0.34335980	      0.07529938	      0.28435910	     -0.27318865	      0.09882800	      0.21056624	     -0.32048994	      1.46914256	      0.31664431	     -0.21666014	      1.38861752	      0.37851569	     -0.24369673	      1.39803624	      0.22561435	     -0.24288073	      1.39561915	      0.30042142	     -0.22108614	      1.19312787	      0.27723196	     -0.20552184	      0.58160329	      0.46055397	     -0.06616025	      0.65031868	      0.16685204	     -0.19747749	      0.64551842	      0.39080963	     -0.15759635	      0.68721044	      0.14068530	     -0.20379744	      0.56555760	      0.36396056	     -0.14477077	      0.60034198	      0.14369155	     -0.30886286	      0.13911273	      0.42187136	     -0.15793912	      0.17659906	      0.17379461	     -0.32063869	      0.20022121	      0.36334234	     -0.21022418	      0.24049610	      0.17387509	     -0.21982379	      0.04206736	      0.30330697	     -0.16092134	      0.06097347	      0.17720008
      1.39167000	     -0.22215170	      0.96528046	      0.26216563	      5.30642631	      1.29509804	     12.65325905	     -5.00002382	      1.26769745	      3.88304061	    -11.09525790	      9.49791191	     12.20651759	      0.41970324	      7.29587119	    -30.88725151	     13.85108804	    -12.49848896	      4.53734926	     -1.98055594	      0.00000000	      0.00000000	      0.00000000	      0.00000000	     -0.15497763	      0.98920968	      0.34893118	     -0.20907290	      0.99268051	      0.14299124	     -0.21084032	      0.96638899	      0.25961471	     -0.36734292	      0.98145445	      0.33965165	     -0.39206911	      0.98340640	      0.25504060	     -0.25889449	      0.90481730	      0.34157403	     -0.28948399	      0.90505352	      0.20603543	     -0.27418924	      0.90493541	      0.27380473	     -0.19546863	      0.46828491	      0.36396771	     -0.25356088	      0.49041570	      0.26065311	     -0.13924767	      0.58557763	      0.42823997	     -0.15149223	      0.64690071	      0.35811528	     -0.15877842	      0.56581418	      0.33506915	     -0.33829814	      0.06368395	      0.38825476	     -0.35873938	      0.06480968	      0.32284243	     -0.28251687	      0.12827572	      0.44110148	     -0.30111182	      0.18998333	      0.38385386	     -0.26070839	      0.49090692	      0.33208147	     -0.33650997	      0.08124496	      0.34476558	     -0.22807864	      0.03917197	      0.31548023	     -0.13583372	      0.50457660	      0.10430638	     -0.14268978	      0.50224205	      0.21228336	     -0.03744676	      0.67886323	      0.15686710	     -0.13046635	      0.71323302	      0.12961196	     -0.11402509	      0.62814596	      0.12494779	     -0.27901708	      0.08564102	      0.13720017	     -0.25958721	      0.08885263	      0.20421053	     -0.13944832	      0.16225273	      0.16454055	     -0.19277000	      0.22803843	      0.16227896	     -0.16475847	      0.50841924	      0.18044420	     -0.26162975	      0.10304343	      0.17643118	     -0.14158227	      0.06062151	      0.14220755	     -0.21786646	      1.36179499	      0.38124236	     -0.23818386	      1.37705549	      0.22768237	     -0.32374565	      1.44638418	      0.31407366	     -0.24066687	      1.37161461	      0.30233797	     -0.21484831	      1.17055906	      0.27219508	     -0.27971900	      0.89993700	      0.28359600	     -0.26638100	      0.88829800	      0.33556200	     -0.29006100	      0.89142500	      0.23170300	     -0.26317900	      0.48176300	      0.32357100	     -0.16479100	      0.49294000	      0.19194200	     -0.34321200	      0.07046200	      0.31650500	     -0.26183600	      0.08329000	      0.18193400	     -0.20310700	      0.98851800	      0.26947700	     -0.17997400	      0.98546300	      0.37093600	     -0.22624100	      0.99157300	      0.16801700	     -0.39273500	      1.01019700	      0.34653400	     -0.41170400	      1.01100500	      0.26275400	     -0.24592400	      0.48022000	      0.38049300	     -0.17078500	      0.49694900	      0.13288100	     -0.28055500	      0.49769900	      0.26671100	     -0.16848700	      0.48588300	      0.24373500	     -0.34296400	      0.06976200	      0.35449700	     -0.27068500	      0.08632400	      0.14355800	     -0.34360400	      0.07527700	      0.28423800	     -0.25715500	      0.09708300	      0.21038600	     -0.31636800	      1.46879300	      0.31644000	     -0.21256200	      1.38833500	      0.37834600	     -0.23963400	      1.39772700	      0.22541000	     -0.23880100	      1.39532100	      0.30023600	     -0.21698000	      1.19282900	      0.27707600	     -0.20252400	      0.58103100	      0.46004800	     -0.06056100	      0.65169600	      0.16746400	     -0.19446500	      0.64505900	      0.39037900	     -0.15209100	      0.68796700	      0.14073900	     -0.20111900	      0.56505500	      0.36343000	     -0.13872600	      0.60119300	      0.14373500	     -0.30823900	      0.13893300	      0.42159800	     -0.14380700	      0.17765900	      0.17363000	     -0.31979700	      0.19999500	      0.36310600	     -0.19753800	      0.24033200	      0.17374600	     -0.21983700	      0.04210200	      0.30316100	     -0.14398900	      0.06188000	      0.17701100	     -3.53162246	    580.05404017	    -10.15357907	     -0.27340399	      0.00000000	      0.31404001	      0.00000000	      0.00000000	      0.00000000	     -0.59223022	      0.00000000	      0.22789699	      0.00000000	      0.17503589	      0.00000000	      0.00000000	      0.00000000	      0.00000000	     -0.27971888	      0.89993739	      0.28359598	     -0.26638055	      0.88829833	      0.33556187	     -0.29006112	      0.89142549	      0.23170325	     -0.26317888	      0.48176298	      0.32357058	     -0.16479100	      0.49294028	      0.19194198	     -0.34321168	      0.07046244	      0.31650472	     -0.26183560	      0.08329004	      0.18193370	     -0.20310748	      0.98851824	      0.26947659	     -0.17997387	      0.98546338	      0.37093636	     -0.22624108	      0.99157310	      0.16801682	     -0.39273456	      1.01019669	      0.34653446	     -0.41170391	      1.01100469	      0.26275361	     -0.24592391	      0.48021987	      0.38049278	     -0.17078479	      0.49694926	      0.13288054	     -0.28055525	      0.49769944	      0.26671064	     -0.16848736	      0.48588252	      0.24373513	     -0.34296381	      0.06976151	      0.35449746	     -0.27068540	      0.08632410	      0.14355759	     -0.34360379	      0.07527693	      0.28423777	     -0.25715470	      0.09708256	      0.21038562	     -0.31636769	      1.46879256	      0.31644043	     -0.21256174	      1.38833475	      0.37834591	     -0.23963352	      1.39772666	      0.22540994	     -0.23880056	      1.39532077	      0.30023620	     -0.21698046	      1.19282913	      0.27707615	     -0.20252439	      0.58103120	      0.46004778	     -0.06056096	      0.65169555	      0.16746414	     -0.19446450	      0.64505905	      0.39037889	     -0.15209134	      0.68796700	      0.14073947	     -0.20111936	      0.56505543	      0.36342958	     -0.13872641	      0.60119259	      0.14373456	     -0.30823886	      0.13893279	      0.42159829	     -0.14380720	      0.17765884	      0.17362981	     -0.31979701	      0.19999485	      0.36310616	     -0.19753802	      0.24033235	      0.17374562	     -0.21983670	      0.04210214	      0.30316085	     -0.14398879	      0.06187959	      0.17701131
      1.40000000	     -0.21797969	      0.96498668	      0.26222967	      5.32254693	      1.37763061	     12.55629076	     -5.27981853	      1.25315737	      4.14251317	    -11.14684029	      9.81917280	     12.50475756	      0.61401621	      7.39860299	    -29.90062869	     13.71548279	    -12.54358090	      4.40460686	     -1.85423418	      0.00000000	      0.00000000	      0.00000000	      0.00000000	     -0.15094610	      0.98879397	      0.34913729	     -0.20472272	      0.99257946	      0.14311945	     -0.20666463	      0.96610198	      0.25969807	     -0.36329485	      0.98100240	      0.33951597	     -0.38789025	      0.98308303	      0.25486987	     -0.25483091	      0.90438839	      0.34148468	     -0.28521019	      0.90483292	      0.20589933	     -0.27002055	      0.90461066	      0.27369201	     -0.19323942	      0.46757790	      0.36357366	     -0.25154300	      0.48998991	      0.26043888	     -0.13631672	      0.58460701	      0.42770864	     -0.14850354	      0.64600221	      0.35763701	     -0.15621143	      0.56495454	      0.33459137	     -0.33811218	      0.06367412	      0.38829000	     -0.35874393	      0.06490771	      0.32293945	     -0.28183611	      0.12797308	      0.44096894	     -0.30028112	      0.18977794	      0.38377775	     -0.25846484	      0.49048775	      0.33188523	     -0.33636328	      0.08122641	      0.34479571	     -0.22798144	      0.03920467	      0.31525467	     -0.12875583	      0.50528578	      0.10479009	     -0.13606316	      0.50289626	      0.21273626	     -0.03162934	      0.68014449	      0.15779321	     -0.12473239	      0.71396691	      0.13014115	     -0.10776796	      0.62897926	      0.12553867	     -0.26249972	      0.08384114	      0.13629507	     -0.24347481	      0.08737681	      0.20340524	     -0.12486843	      0.16359817	      0.16445057	     -0.17968070	      0.22814182	      0.16204093	     -0.15822801	      0.50905987	      0.18082534	     -0.24570893	      0.10156766	      0.17564066	     -0.12463225	      0.06169052	      0.14198765	     -0.21368026	      1.36150876	      0.38100464	     -0.23413970	      1.37668705	      0.22745536	     -0.31962879	      1.44605299	      0.31388870	     -0.23655383	      1.37128499	      0.30211604	     -0.21074414	      1.17021610	      0.27205466	     -0.27553400	      0.89971100	      0.28323700	     -0.26246800	      0.88792100	      0.33525900	     -0.28597400	      0.89121600	      0.23136600	     -0.26100700	      0.48133600	      0.32319700	     -0.15819900	      0.49350200	      0.19186000	     -0.34318800	      0.07045800	      0.31632600	     -0.24558500	      0.08166700	      0.18185700	     -0.19911200	      0.98827000	      0.26944900	     -0.17614700	      0.98505000	      0.37094800	     -0.22207700	      0.99148900	      0.16795000	     -0.38875500	      1.00976400	      0.34618600	     -0.40759900	      1.01068300	      0.26231300	     -0.24358700	      0.47971200	      0.38006700	     -0.16394800	      0.49752400	      0.13277500	     -0.27851500	      0.49738500	      0.26644900	     -0.16263200	      0.48637400	      0.24344100	     -0.34284500	      0.06975400	      0.35431800	     -0.25452500	      0.08449600	      0.14348600	     -0.34367000	      0.07523500	      0.28411700	     -0.24123200	      0.09554600	      0.21031800	     -0.31225600	      1.46848300	      0.31623900	     -0.20843300	      1.38800800	      0.37819700	     -0.23553500	      1.39738900	      0.22516800	     -0.23468700	      1.39499000	      0.30004200	     -0.21289300	      1.19249200	      0.27690600	     -0.19951700	      0.58043300	      0.45952800	     -0.05509800	      0.65300200	      0.16806400	     -0.19158300	      0.64448200	      0.38987100	     -0.14669100	      0.68865700	      0.14080500	     -0.19853800	      0.56447300	      0.36288600	     -0.13288200	      0.60199400	      0.14377200	     -0.30759000	      0.13874200	      0.42132600	     -0.12981500	      0.17883600	      0.17350200	     -0.31884600	      0.19984700	      0.36286300	     -0.18500800	      0.24020200	      0.17365600	     -0.21980700	      0.04213900	      0.30301400	     -0.12724000	      0.06275500	      0.17677400	     -2.70965161	    579.41640952	     -9.90932447	     -0.27152289	      0.00000000	      0.31340036	      0.00000000	      0.00000000	      0.00000000	     -0.59067865	      0.00000000	      0.22770445	      0.00000000	      0.20472552	      0.00000000	      0.00000000	      0.00000000	      0.00000000	     -0.27553418	      0.89971137	      0.28323749	     -0.26246750	      0.88792056	      0.33525854	     -0.28597420	      0.89121598	      0.23136568	     -0.26100725	      0.48133633	      0.32319719	     -0.15819918	      0.49350241	      0.19186017	     -0.34318757	      0.07045777	      0.31632575	     -0.24558510	      0.08166742	      0.18185659	     -0.19911246	      0.98826998	      0.26944891	     -0.17614743	      0.98505050	      0.37094769	     -0.22207749	      0.99148947	      0.16795014	     -0.38875511	      1.00976419	      0.34618625	     -0.40759882	      1.01068306	      0.26231307	     -0.24358748	      0.47971186	      0.38006687	     -0.16394782	      0.49752450	      0.13277526	     -0.27851492	      0.49738458	      0.26644889	     -0.16263214	      0.48637387	      0.24344105	     -0.34284511	      0.06975392	      0.35431769	     -0.25452489	      0.08449636	      0.14348565	     -0.34366998	      0.07523452	      0.28411713	     -0.24123175	      0.09554607	      0.21031818	     -0.31225619	      1.46848273	      0.31623876	     -0.20843340	      1.38800752	      0.37819725	     -0.23553477	      1.39738882	      0.22516845	     -0.23468690	      1.39498961	      0.30004203	     -0.21289337	      1.19249225	      0.27690613	     -0.19951724	      0.58043319	      0.45952827	     -0.05509783	      0.65300196	      0.16806363	     -0.19158286	      0.64448225	      0.38987073	     -0.14669126	      0.68865663	      0.14080545	     -0.19853768	      0.56447291	      0.36288607	     -0.13288169	      0.60199422	      0.14377205	     -0.30758998	      0.13874152	      0.42132559	     -0.12981521	      0.17883639	      0.17350167	     -0.31884629	      0.19984657	      0.36286342	     -0.18500789	      0.24020194	      0.17365563	     -0.21980733	      0.04213931	      0.30301353	     -0.12724043	      0.06275490	      0.17677374
